<?xml version="1.0" encoding="iso-8859-1"?>
<!-- Generator: Adobe Illustrator 19.0.0, SVG Export Plug-In . SVG Version: 6.00 Build 0)  -->
<svg version="1.1" id="Capa_1" xmlns="http://www.w3.org/2000/svg" xmlns:xlink="http://www.w3.org/1999/xlink" x="0px" y="0px"
	 viewBox="0 0 512 512" style="enable-background:new 0 0 512 512;" xml:space="preserve">
<g>
	<path style="fill:#AFD755;" d="M256.018,445.935c-1.238,0-2.5-0.282-3.686-0.871L219.3,428.548c-4.081-2.04-5.734-7-3.694-11.081
		c2.036-4.073,6.984-5.726,11.081-3.694l33.032,16.516c4.081,2.04,5.734,7,3.694,11.081
		C261.966,444.266,259.051,445.935,256.018,445.935z"/>
	<path style="fill:#AFD755;" d="M256.034,495.484c-3.032,0-5.948-1.669-7.395-4.565c-2.04-4.081-0.387-9.04,3.694-11.081
		l33.032-16.516c4.089-2.04,9.04-0.387,11.081,3.694c2.04,4.081,0.387,9.04-3.694,11.081l-33.032,16.516
		C258.534,495.202,257.272,495.484,256.034,495.484z"/>
</g>
<path style="fill:#96BE4B;" d="M297.317,355.097c0-25.711-23.5-45.934-50.193-40.36c-16.149,3.372-28.964,16.785-31.758,33.044
	c-2.907,16.917,4.503,32.329,16.949,41.071c4.333,3.043,7.195,7.749,7.195,13.043V494.6c0,8.227,5.622,15.853,13.742,17.174
	c10.347,1.683,19.29-6.259,19.29-16.29v-93.633c0-5.183,2.695-9.883,6.957-12.832C290.258,381.574,297.317,369.172,297.317,355.097z
	"/>
<path style="fill:#AFD755;" d="M256.026,363.355C101.13,403.763,78.047,290.388,74.802,247.182
	c-0.389-5.183,6.094-7.771,9.449-3.801c87.421,103.458,171.776,103.458,171.776,103.458v16.516H256.026z"/>
<path style="fill:#BEE86E;" d="M255.974,363.355c154.897,40.408,177.979-72.967,181.224-116.173
	c0.389-5.183-6.094-7.771-9.449-3.801c-87.421,103.458-171.776,103.458-171.776,103.458v16.516H255.974z"/>
<path style="fill:#FFA0A0;" d="M280.801,31.618c-21.677-36.779-45.419-35.747-62.452-17.682l37.161,57.806L280.801,31.618z"/>
<path style="fill:#E6646E;" d="M196.5,0c24.43,0,59.527,49.548,84.301,107.355l-24.774,24.774L173.446,41.29
	C165.188,16.516,182.736,0,196.5,0z"/>
<path style="fill:#FF8087;" d="M315.553,0c-24.43,0-59.527,49.548-84.301,107.355l24.774,24.774l82.581-90.839
	C346.865,16.516,329.317,0,315.553,0z"/>
<path style="fill:#E6646E;" d="M226.803,159.364c20.117-32.578,64.69-86.822,100.865-115.252
	c25.046-19.683,48.352-11.398,53.262,5.435c4.86,16.662-8.47,25.87-20.238,37.646c-4.816,4.819-6.206,12.053-3.547,18.326
	c15.374,36.268,31.011,81.875,31.011,117.447c0,72.973-59.156,132.129-132.129,132.129
	C200.399,355.097,156.93,272.516,226.803,159.364z"/>
<path style="fill:#DC4655;" d="M285.25,159.364c-20.117-32.578-64.69-86.822-100.865-115.252
	c-25.046-19.683-48.352-11.398-53.262,5.435c-4.86,16.662,8.47,25.87,20.238,37.646c4.816,4.819,6.206,12.053,3.547,18.326
	c-15.374,36.268-31.011,81.875-31.011,117.447c0,72.973,59.156,132.129,132.129,132.129
	C311.654,355.097,355.123,272.516,285.25,159.364z"/>
<path style="fill:#C33C4B;" d="M123.897,222.968c0,54.43,32.931,101.14,79.941,121.381c-64.333-67.449-17.489-147.187-12.328-173.51
	c6.567-33.493-0.516-50.065-40.149-83.644c4.817,4.819,6.207,12.052,3.547,18.326C139.534,141.788,123.897,187.396,123.897,222.968z
	"/>
<g>
</g>
<g>
</g>
<g>
</g>
<g>
</g>
<g>
</g>
<g>
</g>
<g>
</g>
<g>
</g>
<g>
</g>
<g>
</g>
<g>
</g>
<g>
</g>
<g>
</g>
<g>
</g>
<g>
</g>
</svg>
